<svg width="16" height="17" viewBox="0 0 16 17" fill="none" xmlns="http://www.w3.org/2000/svg">
    <g opacity=".5" fill="#007A8D">
        <path d="M13.333 11.833c.737 0 1.334-.621 1.334-1.389 0-.48-.522-1.12-.913-1.532a.575.575 0 0 0-.841 0c-.391.412-.913 1.053-.913 1.532 0 .768.597 1.39 1.333 1.39zM10.852 7.545l1.003-1.731-5.607-3.218-4.48 7.735a3.218 3.218 0 0 0 1.183 4.403 3.241 3.241 0 0 0 4.42-1.18l.746-1.288 2.735-4.72z"/>
    </g>
    <path d="M6.196 1.403a.5.5 0 1 0-.509.86l.557.33.004.002 5.607 3.218.562.323a.5.5 0 1 0 .498-.867L6.75 1.73l-.554-.327zM8.618 11.4h-.001l-1.742-1.002a.5.5 0 0 0-.499.867l1.74 1.001.502-.865zM9.71 9.516h-.001L6.907 7.903a.5.5 0 0 0-.5.867l2.802 1.612.5-.866zM10.85 7.544l-1.704-.981a.5.5 0 1 0-.5.867l1.705.98.5-.866z" fill="#007A8D"/>
</svg>
